<svg width="66" height="66" viewBox="0 0 66 66" fill="none" xmlns="http://www.w3.org/2000/svg">
<g clip-path="url(#clip0_1953_8690)">
<path d="M33.0035 65.0662C50.7131 65.0662 65.0696 50.7097 65.0696 33.0001C65.0696 15.2905 50.7131 0.934082 33.0035 0.934082C15.294 0.934082 0.9375 15.2905 0.9375 33.0001C0.9375 50.7097 15.294 65.0662 33.0035 65.0662Z" fill="#009DE0" stroke="white" stroke-width="1.86792"/>
<path fill-rule="evenodd" clip-rule="evenodd" d="M39.625 53.5572C39.625 54.0373 36.6538 54.4258 32.9877 54.4258C29.3228 54.4258 26.3516 54.0373 26.3516 53.5572C26.3516 53.0771 29.3228 52.688 32.9877 52.688C36.6532 52.688 39.625 53.0765 39.625 53.5572Z" fill="#0088C7"/>
<path d="M34.5131 52.6641C34.8773 52.7842 35.0572 52.8826 35.0572 52.8826C36.5292 53.5943 36.9893 53.3913 36.9893 53.3913C38.7128 53.118 38.3523 48.2888 38.3523 48.2888C38.3124 46.5896 37.8635 44.8773 37.8566 43.891C37.8566 43.891 38.2377 38.6652 38.3137 35.0309C38.4064 33.4201 37.8062 33.539 37.8062 33.2669C37.8062 32.1605 37.7651 31.5179 37.8062 31.4233C38.4071 31.1082 38.2844 29.8256 38.2844 29.8256V21.1895C38.2844 17.379 34.6245 15.9245 34.6245 15.6991V14.79H34.995C34.995 14.79 35.0859 14.6792 34.7895 14.5572H34.8256V12.8692C34.8256 12.5852 34.5934 12.3542 34.3101 12.3542H31.8083C31.5244 12.3542 31.2921 12.5852 31.2921 12.8692V14.5572H31.3282C31.0312 14.6792 31.1234 14.79 31.1234 14.79H31.4939V15.6991C31.4939 15.9245 27.834 17.379 27.834 21.1895V29.8243C27.834 29.8243 27.7107 31.1076 28.3116 31.422C28.3526 31.5167 28.3116 32.1592 28.3116 33.2657C28.3116 33.5384 27.7113 33.4188 27.8041 35.0296C27.8807 38.6646 28.2711 43.7815 28.2711 43.7815C28.2636 44.7677 27.8066 46.5889 27.7655 48.2881C27.7655 48.2881 27.4062 53.1173 29.1291 53.3907C29.1291 53.3907 29.588 53.593 31.0611 52.882C31.0611 52.882 31.2405 52.7842 31.6047 52.6634" fill="white"/>
<path d="M35.1724 51.3885C35.1724 51.3885 34.4464 53.5205 33.0504 53.5205C31.6544 53.5205 30.9297 51.3885 30.9297 51.3885" fill="white"/>
<path d="M37.4563 48.2478C37.4227 46.8369 36.9028 44.223 36.8972 43.4042C31.8724 43.0836 28.0936 34.5833 29.0855 44.5069C29.1627 45.7392 28.7001 46.8375 28.6665 48.2484C28.6665 48.2484 28.3682 52.257 29.7984 52.4849C29.7984 52.4849 30.1789 52.6536 31.4023 52.0621C31.4023 52.0621 31.5269 51.9967 31.7672 51.912C32.0655 52.3385 32.4957 52.7457 33.0548 52.7457C33.6158 52.7457 34.0473 52.3367 34.3462 51.9089C34.5921 51.9948 34.7198 52.0621 34.7198 52.0621C35.9426 52.653 36.3237 52.4849 36.3237 52.4849C37.7545 52.257 37.4563 48.2478 37.4563 48.2478Z" fill="#00B0E8"/>
<path d="M37.4584 48.2481C36.4715 40.2503 37.1576 45.9089 33.1914 47.6641C29.2271 49.4193 28.0235 51.8339 29.8005 52.4846C29.8005 52.4846 30.1809 52.6533 31.4044 52.0618C31.4044 52.0618 31.529 51.9964 31.7693 51.9118C32.0676 52.3383 32.4978 52.7455 33.0569 52.7455C33.6179 52.7455 34.0494 52.3364 34.3483 51.9087C34.5942 51.9946 34.7219 52.0618 34.7219 52.0618C35.9447 52.6527 36.3258 52.4846 36.3258 52.4846C37.7566 52.2573 37.4584 48.2481 37.4584 48.2481Z" fill="#0088C7"/>
</g>
<defs>
<clipPath id="clip0_1953_8690">
<rect width="66" height="66" fill="white"/>
</clipPath>
</defs>
</svg>
