<svg width="66" height="66" viewBox="0 0 66 66" fill="none" xmlns="http://www.w3.org/2000/svg">
<g clip-path="url(#clip0_1953_8790)">
<path d="M33.0035 65.0662C50.7131 65.0662 65.0696 50.7097 65.0696 33.0001C65.0696 15.2905 50.7131 0.934082 33.0035 0.934082C15.294 0.934082 0.9375 15.2905 0.9375 33.0001C0.9375 50.7097 15.294 65.0662 33.0035 65.0662Z" fill="#009DE0" stroke="white" stroke-width="1.86792"/>
<path d="M20.5115 30.601V21.7209C20.0482 22.5901 18.2139 23.8634 15.8392 23.8634L15.7812 20.62C18.2911 20.62 20.3371 18.7664 20.5115 17.0872H24.0057V30.601H20.5115Z" fill="white"/>
<path d="M31.2792 30.601V28.149H25.7969V25.3695L30.1012 17.0872H33.7698L29.4642 25.3695H31.5302V22.7246H34.7349V25.3695H36.6265V28.149H34.7349V30.601H31.2792Z" fill="white"/>
<path d="M37.8438 23.8632C37.8438 19.925 39.6394 16.9712 43.4419 16.9712C47.3807 16.9712 49.2344 19.925 49.2344 23.8632C49.2344 27.8014 47.4001 30.7166 43.4419 30.7166C39.6201 30.7166 37.8438 27.8014 37.8438 23.8632ZM45.8553 23.8632C45.8553 21.2768 45.1025 19.925 43.4419 19.925C41.8592 19.925 41.1251 21.2768 41.1251 23.8632C41.1251 26.431 41.8592 27.7634 43.4419 27.7634C45.1025 27.7634 45.8553 26.431 45.8553 23.8632Z" fill="white"/>
<path d="M17.8603 38.2981V41.7376H15.9688V34.4626H17.8603L19.8148 38.5266L21.8826 34.4626H23.6708V41.7376H21.7786L21.8309 38.0484L20.3864 40.8858H19.1287L17.8603 38.2981Z" fill="white"/>
<path d="M24.9844 41.7383V34.4622H29.7961V35.9596H26.876V37.4041H29.0272V38.8698H26.876V40.2415H29.7961V41.7383H24.9844Z" fill="white"/>
<path d="M32.6927 41.7383V35.9596H30.2812V34.4622H36.8813V35.9596H34.5843V41.7383H32.6927Z" fill="white"/>
<path d="M37.6406 41.7383V34.4622H42.453V35.9596H39.5322V37.4041H41.6834V38.8698H39.5322V40.2415H42.453V41.7383H37.6406Z" fill="white"/>
<path d="M49.7307 41.7072C49.7307 41.7072 49.4505 41.8006 48.8061 41.8006C46.3741 41.8006 47.1947 39.2328 45.719 39.2328H45.3753V41.7377H43.4844V34.4622H46.2072C48.1617 34.4622 49.1492 35.1278 49.1492 36.8431C49.1492 37.924 48.4213 38.4645 48.0166 38.6824C48.5988 39.3792 48.557 40.2415 49.4088 40.2415H49.7313L49.7307 41.7072ZM46.0104 37.8201C46.7694 37.8201 47.3093 37.5081 47.3093 36.9048C47.3093 36.3014 46.8622 35.959 46.135 35.959H45.3753V37.8194L46.0104 37.8201Z" fill="white"/>
<path fill-rule="evenodd" clip-rule="evenodd" d="M50.6066 48.6483C50.6066 49.568 42.7034 50.312 32.9553 50.312C23.2073 50.312 15.3047 49.5673 15.3047 48.6483C15.3047 47.7281 23.2079 46.9846 32.956 46.9846C42.704 46.9846 50.6066 47.7281 50.6066 48.6483Z" fill="#0088C7"/>
</g>
<defs>
<clipPath id="clip0_1953_8790">
<rect width="66" height="66" fill="white"/>
</clipPath>
</defs>
</svg>
