<svg width="66" height="66" viewBox="0 0 66 66" fill="none" xmlns="http://www.w3.org/2000/svg">
<g clip-path="url(#clip0_1953_8674)">
<path d="M33.0035 65.0662C50.7131 65.0662 65.0696 50.7097 65.0696 33.0001C65.0696 15.2905 50.7131 0.934082 33.0035 0.934082C15.294 0.934082 0.9375 15.2905 0.9375 33.0001C0.9375 50.7097 15.294 65.0662 33.0035 65.0662Z" fill="#009DE0" stroke="white" stroke-width="1.86792"/>
<path d="M22.0729 34.5042L20.6782 41.1104L20.6047 41.4043L20.5312 41.7711V41.8445C20.5312 41.918 20.5312 41.918 20.5312 41.9915V42.0643V42.1378C20.5312 42.2113 20.6047 42.2847 20.6047 42.3582L20.6782 42.4317L20.8251 42.5786L20.9715 42.7256C21.4123 43.1651 22.1458 43.6794 23.0274 44.1925C23.9085 44.7062 25.0821 45.294 26.3305 45.8076L26.6232 45.9546H26.6973L26.9912 46.1009L27.285 46.2472L27.5055 46.3207C28.0185 46.5411 28.5328 46.6881 29.0465 46.835C29.5608 46.9807 30.0004 47.1276 30.5147 47.2746C33.3035 48.0821 35.4317 48.2285 35.6521 47.5685L35.946 47.0548L44.0932 32.5217C43.2857 33.1089 38.1483 33.9158 31.9094 31.9346C24.863 29.6588 22.147 34.1362 22.147 34.1362L22.0729 34.5042Z" fill="#0780C1"/>
<path d="M33.079 54.0291C40.3758 54.0291 46.2908 53.4047 46.2908 52.6343C46.2908 51.8641 40.3758 51.2396 33.079 51.2396C25.7823 51.2396 19.8672 51.8641 19.8672 52.6343C19.8672 53.4047 25.7823 54.0291 33.079 54.0291Z" fill="#0780C1"/>
<path d="M50.5489 24.0083C50.5489 23.9354 50.5489 23.8613 50.5489 23.7879C50.5489 23.6409 50.4019 23.494 50.3285 23.347C50.255 23.2736 50.1081 23.1272 50.0346 23.0531L49.8142 22.9068C49.5938 22.7599 49.374 22.5401 49.0801 22.3197C47.0247 20.9249 43.0616 18.9431 38.3632 17.1822C36.3813 16.4482 34.4001 15.7875 32.6386 15.2739C32.0514 15.1275 31.4643 14.9071 30.95 14.7596C30.4369 14.6132 29.9226 14.4663 29.409 14.3928C29.1163 14.32 28.749 14.2459 28.4557 14.1724C28.1618 14.0989 27.8685 14.0261 27.5747 14.0261L26.8399 13.8791C26.6195 13.8791 26.3997 13.8057 26.1793 13.8057C25.8854 13.8057 25.5922 13.8057 25.3717 13.8057C25.2254 13.8057 25.0779 13.8057 25.005 13.8791C24.7846 13.9532 24.6383 14.0261 24.5642 14.173V14.2459L24.0511 16.3747L17.0788 45.4408C16.7849 46.3219 19.207 48.0833 22.804 49.6985C23.6109 50.0652 24.5648 50.4326 25.5199 50.7999C26.7671 51.3136 28.0149 51.6803 29.1163 51.9742C29.7035 52.1205 30.2178 52.2681 30.7308 52.4144C31.4655 52.5614 32.1996 52.7082 32.7868 52.7811C34.2537 52.928 35.1354 52.7812 35.3552 52.3409L49.4481 25.9914L50.476 24.0824L50.5489 24.0083ZM25.8867 15.2004C25.9601 15.1269 26.1806 15.0534 26.4738 15.0534C28.2353 14.98 33.0794 16.2277 37.8507 18.0627C43.5018 20.1915 48.3466 22.5407 47.9058 23.715C47.8329 23.8613 47.6854 23.9354 47.4649 24.0083C45.9239 24.4485 40.2722 22.834 36.3819 21.3652C32.1255 19.6778 25.0791 16.2277 25.8867 15.2004ZM26.1071 49.1107C22.3638 47.7159 19.4274 46.1743 19.5743 45.7347C19.7207 45.2939 22.9503 46.1015 26.6942 47.569C30.4382 49.0365 33.3746 50.5053 33.227 50.945C33.0794 51.3864 29.8504 50.5789 26.1071 49.1107ZM42.2553 35.1654L35.9423 46.3219L35.2082 47.5696C35.1354 47.716 35.0619 47.7901 34.9144 47.8635C34.7687 47.9364 34.6211 48.0098 34.3272 48.0098C34.1068 48.0098 33.8141 48.0098 33.5196 48.0098C32.7862 47.9363 31.7582 47.7901 30.6567 47.4962C29.7757 47.2758 28.8218 46.9825 27.7944 46.6158C27.574 46.5423 27.2808 46.4688 27.0604 46.3219L26.6195 46.1749L26.2528 46.0286L26.1065 45.9557L25.8861 45.8817H25.8126C23.317 44.8542 21.4086 43.6806 20.5276 42.799C20.4548 42.7255 20.3807 42.6526 20.3807 42.6526V42.5798L20.3078 42.4329V42.3581L20.2343 42.2852C20.1609 42.2118 20.1609 42.1383 20.1609 42.0648V41.992V41.9186C20.1609 41.8451 20.1609 41.8451 20.1609 41.7716V41.6988L20.2343 41.4049V41.3314V41.2586L20.3078 41.0381L21.1154 37.1472L21.776 33.9176L22.5107 30.3212L23.0979 27.6787V27.6053L25.0791 17.9898C26.1806 18.7245 27.5753 19.458 29.1904 20.1921C29.6306 20.4119 30.1443 20.6323 30.5845 20.7786C31.0982 20.999 31.5384 21.146 32.0521 21.3658C33.2998 21.8807 34.6217 22.3203 35.8689 22.7605C36.603 23.0544 37.3371 23.2748 37.9977 23.4952C42.0343 24.6695 44.3106 24.7429 46.5117 24.9628C46.8797 24.9628 47.2458 25.0362 47.6131 25.1091L42.2553 35.1654Z" fill="white"/>
<path d="M21.5518 35.973L20.4516 41.1104L20.3775 41.4043L20.3047 41.771V41.8445C20.3047 41.9179 20.3047 41.9179 20.3047 41.9914V42.0643V42.1377C20.3047 42.2112 20.3775 42.2847 20.3775 42.3581L20.4516 42.4316L20.598 42.5786L20.7449 42.7255C21.1851 43.1651 21.9186 43.6794 22.8002 44.1924C23.6813 44.7061 24.8556 45.2939 26.1033 45.8076L26.3972 45.9545H26.4707L26.764 46.1008L27.0579 46.2472L27.2783 46.3206C27.792 46.5411 28.3056 46.688 28.8193 46.8349C29.3336 46.9806 29.7732 47.1276 30.2875 47.2745C33.0763 48.0821 35.2051 48.2284 35.4249 47.5684L35.7194 47.0547L47.1704 26.6501C45.5547 29.2926 35.8664 38.9816 30.2147 34.8703C23.6819 30.1002 21.8476 35.0172 21.8476 35.0172L21.5518 35.973Z" fill="#81CDF2"/>
</g>
<defs>
<clipPath id="clip0_1953_8674">
<rect width="66" height="66" fill="white"/>
</clipPath>
</defs>
</svg>
