<svg width="66" height="66" viewBox="0 0 66 66" fill="none" xmlns="http://www.w3.org/2000/svg">
<g clip-path="url(#clip0_1953_8734)">
<path d="M33.0035 65.0662C50.7131 65.0662 65.0696 50.7097 65.0696 33.0001C65.0696 15.2905 50.7131 0.934082 33.0035 0.934082C15.294 0.934082 0.9375 15.2905 0.9375 33.0001C0.9375 50.7097 15.294 65.0662 33.0035 65.0662Z" fill="#009DE0" stroke="white" stroke-width="1.86792"/>
<path fill-rule="evenodd" clip-rule="evenodd" d="M43.2503 50.8294C43.2503 51.7771 39.3339 52.5448 34.5041 52.5448C29.6736 52.5448 25.7578 51.7777 25.7578 50.8294C25.7578 49.8811 29.6736 49.114 34.5041 49.114C39.3339 49.114 43.2503 49.8805 43.2503 50.8294Z" fill="#0088C7"/>
<path d="M21.5547 24.0819C21.5547 21.1741 26.7762 15.3113 26.7762 13.7803C26.7762 15.3587 31.9983 21.1741 31.9983 24.0819C31.9983 26.9902 29.6602 29.3519 26.7762 29.3519C23.8927 29.3395 21.5547 26.9902 21.5547 24.0819Z" fill="#ABE1FA"/>
<path d="M36.5625 24.9443C36.5625 22.6804 40.629 18.1152 40.629 16.9229C40.629 18.1519 44.6948 22.6804 44.6948 24.9443C44.6948 27.2083 42.8742 29.0475 40.629 29.0475C38.3831 29.0382 36.5625 27.2076 36.5625 24.9443Z" fill="white"/>
<path d="M25.4688 41.8403C25.4688 36.8647 34.4049 26.8321 34.4049 24.2114C34.4049 26.9124 43.3404 36.8641 43.3404 41.8403C43.3404 46.8152 39.3393 50.8567 34.4049 50.8567C29.4698 50.8362 25.4688 46.8152 25.4688 41.8403Z" fill="#6DCFF6"/>
<path d="M41.8969 42.2377C41.8969 46.405 38.5452 49.7897 34.4121 49.7897C31.3394 49.7772 28.6994 47.9124 27.5469 45.2444C34.2147 47.4753 41.8969 38.0709 41.8969 42.2377Z" fill="#00AEEF"/>
<path d="M31.1289 23.9823C31.1289 26.4155 29.1725 28.3918 26.7592 28.3918C24.9647 28.3843 23.4231 27.296 22.75 25.7381C26.6434 27.0407 31.1289 21.5483 31.1289 23.9823Z" fill="#00B0E8"/>
<path d="M43.9734 24.7912C43.9734 26.6847 42.4511 28.2232 40.5726 28.2232C39.1766 28.217 37.9774 27.3702 37.4531 26.1579C40.4829 27.1716 43.9734 22.8977 43.9734 24.7912Z" fill="#6DCFF6"/>
</g>
<defs>
<clipPath id="clip0_1953_8734">
<rect width="66" height="66" fill="white"/>
</clipPath>
</defs>
</svg>
