<svg width="66" height="66" viewBox="0 0 66 66" fill="none" xmlns="http://www.w3.org/2000/svg">
<g clip-path="url(#clip0_1953_8755)">
<path d="M33.0035 65.0662C50.7131 65.0662 65.0696 50.7097 65.0696 33.0001C65.0696 15.2905 50.7131 0.934082 33.0035 0.934082C15.294 0.934082 0.9375 15.2905 0.9375 33.0001C0.9375 50.7097 15.294 65.0662 33.0035 65.0662Z" fill="#009DE0" stroke="white" stroke-width="1.86792"/>
<path d="M49.1028 35.9002C49.8164 36.295 49.8282 36.9618 49.1284 37.3809L34.6538 46.0586C33.954 46.4789 32.8089 46.4789 32.1097 46.0586L17.6345 37.3809C16.9347 36.9618 16.9465 36.295 17.6601 35.9002L32.0842 27.9186C32.7977 27.5232 33.9658 27.5232 34.68 27.9186L49.1028 35.9002Z" fill="#0088C7"/>
<path d="M49.1099 28.8346C49.8228 29.2312 49.8327 29.8974 49.1329 30.3159L34.6341 38.9712C33.9342 39.3896 32.7892 39.3871 32.09 38.9668L17.5083 30.1888C16.8091 29.7679 16.8222 29.1017 17.5363 28.7082L31.9866 20.7508C32.7001 20.3567 33.8682 20.3592 34.5818 20.7558L49.1099 28.8346Z" fill="#33BBED"/>
<path fill-rule="evenodd" clip-rule="evenodd" d="M48.3589 50.9315C48.3589 51.8512 41.5528 52.5952 33.1602 52.5952C24.7664 52.5952 17.9609 51.8512 17.9609 50.9315C17.9609 50.0113 24.7664 49.2678 33.1602 49.2678C41.5528 49.2678 48.3589 50.0113 48.3589 50.9315Z" fill="#0088C7"/>
<path d="M49.1028 22.5575C49.8164 22.9522 49.8282 23.6191 49.1284 24.0381L34.6538 32.7159C33.954 33.1362 32.8089 33.1362 32.1097 32.7159L17.6345 24.0381C16.9347 23.6191 16.9465 22.9522 17.6601 22.5575L32.0836 14.5758C32.7971 14.1805 33.9652 14.1805 34.6794 14.5758L49.1028 22.5575Z" fill="#ABE1FA"/>
<path d="M46.3944 23.9063L34.4347 31.076C33.8568 31.4228 32.9104 31.4228 32.3326 31.076L20.3729 23.9063C19.6513 23.466 18.9004 21.2152 26.0589 23.6858C37.5697 27.6583 46.7947 23.6659 46.3944 23.9063Z" fill="#33BBED"/>
<path d="M46.3965 23.9061L34.4368 31.0759C33.859 31.4227 32.9126 31.4227 32.3347 31.0759C32.3347 31.0759 28.8735 29.1687 27.8125 28.325C30.0434 27.2354 30.7962 27.7802 33.4424 27.7802C36.0887 27.7802 46.5247 23.8289 46.3965 23.9061Z" fill="#00AEEF"/>
</g>
<defs>
<clipPath id="clip0_1953_8755">
<rect width="66" height="66" fill="white"/>
</clipPath>
</defs>
</svg>
