<svg width="66" height="66" viewBox="0 0 66 66" fill="none" xmlns="http://www.w3.org/2000/svg">
<g clip-path="url(#clip0_1953_8772)">
<path d="M33.0035 65.0662C50.7131 65.0662 65.0696 50.7097 65.0696 33.0001C65.0696 15.2905 50.7131 0.934082 33.0035 0.934082C15.294 0.934082 0.9375 15.2905 0.9375 33.0001C0.9375 50.7097 15.294 65.0662 33.0035 65.0662Z" fill="#009DE0" stroke="white" stroke-width="1.86792"/>
<path d="M34.934 54.0898C43.7816 54.0898 50.9539 53.2958 50.9539 52.3165C50.9539 51.3371 43.7816 50.5432 34.934 50.5432C26.0865 50.5432 18.9141 51.3371 18.9141 52.3165C18.9141 53.2958 26.0865 54.0898 34.934 54.0898Z" fill="#0280C2"/>
<path d="M51.5497 28.4834C51.6151 28.5488 51.6151 28.6808 51.5497 28.8115L43.3427 51.3972C43.2767 51.66 43.0799 51.9227 42.8172 51.9875C42.8172 51.9875 38.4836 52.7764 38.4182 52.7764L31.6551 49.5586C31.2616 49.4932 30.9988 49.0991 31.0648 48.7049L36.1201 30.3221C36.1201 30.1907 39.2719 25.6603 39.3366 25.595L47.3463 22.5091C47.6097 22.4431 47.8724 22.5091 48.0038 22.7059L51.5497 28.4834Z" fill="#81CFF4"/>
<path d="M27.0616 45.4229L22.8594 22.5739C22.8594 22.3771 22.8594 22.1797 22.9908 21.9836L28.7029 14.1701C28.9656 13.9079 29.3591 13.8419 29.6873 14.0393L39.3382 20.7358C39.5356 20.8672 39.601 21.0646 39.601 21.2613L37.7629 52.7103" fill="#0280C2"/>
<path d="M38.3529 52.8425L27.1914 49.756L22.267 22.772C22.2016 22.3779 22.333 21.9844 22.5297 21.7216L28.1758 13.9087C28.636 13.3178 29.489 13.2518 30.0799 13.7113L39.666 20.3431C39.9936 20.6058 40.1909 20.9993 40.1909 21.3935L38.3529 52.8425ZM28.3078 48.705L37.2365 51.1999L39.0098 21.3268L29.3582 14.6303C29.2922 14.5643 29.2275 14.5643 29.2275 14.6303L23.5807 22.4432C23.5153 22.5086 23.5153 22.5086 23.5153 22.574L28.3078 48.705Z" fill="#0280C2"/>
<path d="M29.6819 15.0899C29.4198 14.9585 29.091 15.0899 29.157 15.418L32.2428 26.7109C32.2428 26.9736 32.637 27.1704 32.8337 26.9736L38.6772 21.9178C38.808 21.7864 38.808 21.5237 38.6124 21.3923L29.6819 15.0899Z" fill="#47B9EA"/>
<path d="M24.0385 24.1506L25.9425 35.0487L33.624 51.6602L32.3115 29.2712C32.3115 29.0744 32.1801 28.9437 32.0488 28.8117L24.564 23.8219C24.3672 23.6251 23.9731 23.8219 24.0385 24.1506Z" fill="#81CFF4"/>
<path d="M38.4175 52.7763L32.9021 53.0384H32.8374L29.1607 52.2501C29.0947 52.2501 29.0293 52.1854 28.9639 52.1194L17.6044 38.7257C17.5391 38.6597 17.5391 38.5944 17.5391 38.529L18.9176 30.6507C18.9176 30.4533 19.115 30.2566 19.3117 30.3226L27.8469 33.211C27.9783 33.211 28.0436 33.277 28.109 33.4084L38.4175 52.7763Z" fill="#47B9EA"/>
</g>
<defs>
<clipPath id="clip0_1953_8772">
<rect width="66" height="66" fill="white"/>
</clipPath>
</defs>
</svg>
