<svg width="66" height="66" viewBox="0 0 66 66" fill="none" xmlns="http://www.w3.org/2000/svg">
<g clip-path="url(#clip0_1953_8704)">
<path d="M33.0035 65.0659C50.7131 65.0659 65.0696 50.7095 65.0696 32.9999C65.0696 15.2903 50.7131 0.933838 33.0035 0.933838C15.294 0.933838 0.9375 15.2903 0.9375 32.9999C0.9375 50.7095 15.294 65.0659 33.0035 65.0659Z" fill="#009DE0" stroke="white" stroke-width="1.86792"/>
<path fill-rule="evenodd" clip-rule="evenodd" d="M43.4691 51.452C43.4691 52.3996 39.552 53.1673 34.7228 53.1673C29.8924 53.1673 25.9766 52.4002 25.9766 51.452C25.9766 50.5037 29.893 49.7366 34.7228 49.7366C39.552 49.7366 43.4691 50.503 43.4691 51.452Z" fill="#0088C7"/>
<path d="M30.6987 22.8816C30.6987 25.7775 28.3507 28.1255 25.4548 28.1255C22.5589 28.1255 20.2109 25.7775 20.2109 22.8816C20.2109 19.9857 22.5589 17.6377 25.4548 17.6377C28.3507 17.6377 30.6987 19.9857 30.6987 22.8816Z" fill="white"/>
<path d="M46.7615 28.3894C47.0274 27.961 47.1793 27.4859 47.1793 26.9841C47.1793 25.0888 45.066 23.5527 42.4609 23.5527C41.9354 23.5527 41.4329 23.6175 40.9603 23.7326C40.3863 21.1767 37.8484 19.2502 34.8043 19.2502C32.1848 19.2502 29.9427 20.6761 29 22.7009C28.4944 22.5253 27.9465 22.4263 27.3712 22.4263C24.8887 22.4263 22.877 24.2152 22.877 26.4212C22.877 26.5625 22.8857 26.7014 22.9019 26.8396C21.0308 27.735 19.7656 29.4317 19.7656 31.3818C19.7656 31.4011 19.7687 31.4204 19.7687 31.4403H49.9413C49.9413 31.4279 49.9438 31.4167 49.9438 31.4048C49.9444 30.0058 48.612 28.8209 46.7615 28.3894Z" fill="#6DCFF6"/>
<path d="M42.8847 29.6938H28.625V31.4391H42.8847V29.6938Z" fill="#0088C7"/>
<path fill-rule="evenodd" clip-rule="evenodd" d="M28.8899 38.5956C29.4478 38.5956 29.9048 38.1392 29.9048 37.5807V33.1724C29.9048 32.6145 29.4478 32.1575 28.8899 32.1575C28.332 32.1575 27.875 32.6139 27.875 33.1724V37.5807C27.875 38.1392 28.332 38.5956 28.8899 38.5956Z" fill="#0088C7"/>
<path fill-rule="evenodd" clip-rule="evenodd" d="M34.9296 39.7458C35.4875 39.7458 35.9439 39.2901 35.9439 38.7309V34.3226C35.9439 33.7647 35.4875 33.3083 34.9296 33.3083C34.3717 33.3083 33.9141 33.7647 33.9141 34.3226V38.7309C33.9141 39.2901 34.3711 39.7458 34.9296 39.7458Z" fill="#6DCFF6"/>
<path d="M26.1155 16.9071C25.9941 15.767 25.7525 13.8972 25.4754 13.8972C25.1989 13.8972 24.9574 15.7602 24.8359 16.9008C25.0389 16.8797 25.2456 16.8685 25.4542 16.8685C25.679 16.8691 25.8988 16.8834 26.1155 16.9071Z" fill="white"/>
<path d="M18.8381 21.884C17.6831 22.0073 15.7891 22.252 15.7891 22.5328C15.7891 22.8124 17.6763 23.0571 18.8319 23.1804C18.8107 22.9743 18.7995 22.7651 18.7995 22.554C18.7995 22.3274 18.8139 22.1051 18.8381 21.884Z" fill="white"/>
<path d="M21.4623 18.4217C20.5701 17.7019 19.077 16.5506 18.8815 16.7461C18.686 16.9417 19.8323 18.4291 20.5526 19.322C20.6822 19.1632 20.8204 19.0101 20.968 18.8625C21.1261 18.7037 21.2917 18.5587 21.4623 18.4217Z" fill="white"/>
<path d="M30.1972 19.3771C30.917 18.4849 32.0683 16.9918 31.8727 16.7963C31.6772 16.6008 30.1897 17.7464 29.2969 18.4675C29.4556 18.597 29.6088 18.7352 29.757 18.8828C29.9152 19.0409 30.0602 19.2072 30.1972 19.3771Z" fill="white"/>
<path d="M20.5491 26.3933C19.8293 27.2862 18.6781 28.7787 18.8736 28.9748C19.0691 29.1697 20.5566 28.024 21.4495 27.303C21.2907 27.1735 21.1375 27.0353 20.9893 26.8877C20.8312 26.7295 20.6861 26.5639 20.5491 26.3933Z" fill="white"/>
<path fill-rule="evenodd" clip-rule="evenodd" d="M34.9368 48.6238C35.4947 48.6238 35.9517 48.168 35.9517 47.6089V43.2006C35.9517 42.6427 35.4947 42.1863 34.9368 42.1863C34.3789 42.1863 33.9219 42.6427 33.9219 43.2006V47.6089C33.9219 48.1674 34.3795 48.6238 34.9368 48.6238Z" fill="#6DCFF6"/>
<path fill-rule="evenodd" clip-rule="evenodd" d="M29.3821 47.1625C29.94 47.1625 30.397 46.7061 30.397 46.1476V41.7393C30.397 41.1814 29.94 40.7244 29.3821 40.7244C28.8242 40.7244 28.3672 41.1808 28.3672 41.7393V46.1476C28.3678 46.7061 28.8242 47.1625 29.3821 47.1625Z" fill="#33BBED"/>
<path fill-rule="evenodd" clip-rule="evenodd" d="M40.608 46.7225C41.1659 46.7225 41.6236 46.2661 41.6236 45.7076V41.2993C41.6236 40.7414 41.1665 40.2844 40.608 40.2844C40.0501 40.2844 39.5938 40.7408 39.5938 41.2993V45.7076C39.5938 46.2661 40.0501 46.7225 40.608 46.7225Z" fill="#33BBED"/>
<path fill-rule="evenodd" clip-rule="evenodd" d="M40.7955 38.8844C41.3534 38.8844 41.8111 38.428 41.8111 37.8689V33.4606C41.8111 32.9027 41.354 32.4463 40.7955 32.4463C40.2376 32.4463 39.7812 32.9027 39.7812 33.4606V37.8689C39.7812 38.428 40.2376 38.8844 40.7955 38.8844Z" fill="#0088C7"/>
<path fill-rule="evenodd" clip-rule="evenodd" d="M49.9264 31.4396C49.9264 32.8399 45.1639 35.9462 36.7127 34.8709C33.6786 34.4849 30.7659 32.4868 26.5886 33.5578C22.4113 34.6281 19.7812 33.2838 19.7812 31.4651C19.7812 30.0648 26.5531 28.9048 34.8691 28.9048C43.1851 28.9042 49.9264 30.0392 49.9264 31.4396Z" fill="#6DCFF6"/>
</g>
<defs>
<clipPath id="clip0_1953_8704">
<rect width="66" height="66" fill="white"/>
</clipPath>
</defs>
</svg>
